<?xml version="1.0" encoding="utf-8"?>
<!-- Generator: Adobe Illustrator 16.0.0, SVG Export Plug-In . SVG Version: 6.00 Build 0)  -->
<svg version="1.2" baseProfile="tiny" id="Layer_1" xmlns="http://www.w3.org/2000/svg" xmlns:xlink="http://www.w3.org/1999/xlink"
	 x="0px" y="0px" width="1000px" height="1000px" viewBox="0 0 1000 1000" xml:space="preserve">
<g>
	<g>
		<g>
			<path fill="#E2231A" d="M423.553,418.709h58.186l-30.726-49.611l-56.445,89.597l-25.768,0.003l68.697-107.543
				c2.938-4.343,7.972-6.987,13.472-6.987c5.389,0,10.332,2.551,13.267,6.795l68.9,107.732l-25.701-0.003l-12.115-20.027h-58.918
				L423.553,418.709"/>
			<path fill="#E2231A" d="M690.524,438.667v-93.403h-21.848v102.587c0,2.799,1.175,5.532,3.221,7.514
				c2.08,2.147,4.945,3.33,7.952,3.33h99.379l12.95-20.028H690.524"/>
			<path fill="#E2231A" d="M329.696,421.965c21.242,0,38.309-17.179,38.309-38.357c0-21.188-17.066-38.344-38.309-38.344h-95.439
				V458.7h21.813v-93.393h72.161c10.141,0,18.354,8.176,18.354,18.305c0,10.101-8.211,18.405-18.354,18.405l-61.494-0.044
				l65.146,56.724h31.642l-43.76-36.729h9.931"/>
			<path fill="#E2231A" d="M100.061,458.695c-31.322,0-56.736-25.342-56.736-56.68c0-31.36,25.414-56.756,56.736-56.756h65.942
				c31.372,0,56.626,25.394,56.626,56.756c0,31.338-25.252,56.683-56.626,56.683L100.061,458.695 M164.496,438.739
				c20.328,0,36.733-16.478,36.733-36.724c0-20.315-16.405-36.713-36.733-36.713H101.52c-20.273,0-36.683,16.397-36.683,36.713
				c0,20.247,16.417,36.724,36.683,36.724H164.496"/>
			<path fill="#E2231A" d="M578.686,458.695c-31.357,0-56.813-25.342-56.813-56.68c0-31.36,25.456-56.756,56.813-56.756h78.326
				l-12.884,20.039h-63.952c-20.361,0-36.767,16.397-36.767,36.711c0,20.247,16.405,36.724,36.767,36.724h78.561l-12.74,19.957
				h-67.311"/>
			<path fill="#E2231A" d="M845.435,438.739c-16.814,0-30.977-11.288-35.351-26.717h93.206l12.85-19.996H810.086
				c4.356-15.468,18.534-26.722,35.349-26.722h63.996l12.789-20.039h-78.253c-31.294,0-56.688,25.394-56.688,56.754
				c0,31.338,25.397,56.68,56.688,56.68h67.313l12.779-19.957h-78.624"/>
			<path fill="#E2231A" d="M933.899,357.372c0-5.538,4.483-10.021,10.088-10.021c5.589,0,10.017,4.483,10.017,10.021
				c0,5.509-4.428,9.999-10.017,9.999C938.383,367.371,933.899,362.881,933.899,357.372 M943.993,370.12
				c7.047,0,12.683-5.64,12.683-12.694c0-7.04-5.636-12.802-12.683-12.802c-7.104,0-12.773,5.763-12.773,12.802
				C931.209,364.479,936.887,370.12,943.993,370.12 M942.756,349.845c1.914,0,2.795,0.09,3.787,0.365
				c2.48,0.817,2.706,3.168,2.706,3.996c0,0.185-0.063,0.655-0.133,1.176c-0.143,0.56-0.441,1.722-1.77,2.476
				c-0.154,0.115-0.264,0.19-0.552,0.34l3.274,5.909h-3.192l-2.938-5.494h-1.917v5.494h-2.845v-14.262H942.756 M943.763,356.303
				c0.866,0,1.785-0.086,2.327-0.915c0.381-0.324,0.434-0.734,0.434-1.195c0-0.81-0.467-1.424-1.114-1.752
				c-0.739-0.304-1.298-0.304-2.655-0.304h-0.734v4.172h1.743"/>
		</g>
	</g>
	<g>
		<g>
			<rect x="43.324" y="516.257" width="880.737" height="6.282"/>
		</g>
	</g>
	<g>
		<path d="M349.922,604.209c-0.306-2.561-1.221-12.972-11.958-12.972c-11.756,0-16.664,12.264-16.664,27.491
			c0,4.399,0,25.351,15.435,25.351c6.645,0,12.983-4.183,13.296-13.996h16.663c-0.301,4.399-0.714,11.242-6.639,17.382
			c-6.546,6.733-14.831,8.283-21.569,8.283c-25.455,0-33.751-18.817-33.751-37.131c0-23.411,13.088-38.957,33.843-38.957
			c16.16,0,27.511,9.823,27.511,24.549H349.922L349.922,604.209z"/>
		<path d="M381.5,580.181h16.159v61.247h31.697v12.574H381.5V580.181z"/>
		<path d="M470.734,578.536c7.879,0,18.709,1.841,25.978,10.023c7.877,9,9.394,20.554,9.394,27.813
			c0,10.736-3.259,22.182-9.291,28.933c-8.183,9.202-20.138,10.528-26.273,10.528c-9.713,0-19.438-3.068-26.184-10.128
			c-8.075-8.583-9.101-20.837-9.101-27.601C435.257,598.483,444.164,578.536,470.734,578.536z M457.345,638.25
			c2.249,3.072,6.034,5.935,13.39,5.935c6.444,0,10.84-2.245,13.81-6.848c2.456-3.681,5.008-9.399,5.008-21.163
			c0-3.569-0.301-8.693-1.842-13.19c-3.075-9.098-9.309-13.089-16.875-13.089c-5.927,0-10.629,2.454-13.588,6.246
			c-4.205,5.113-5.426,13.083-5.426,21.468C451.832,624.653,452.946,632.531,457.345,638.25z"/>
		<path d="M534.715,580.276v44.995c0,8.077,0.62,18.205,16.042,18.205c2.563,0,10.23-0.108,14.317-6.439
			c1.531-2.251,2.355-5.121,2.355-12.586v-44.172h15.448v46.123c0,21.98-17.485,29.043-32.42,29.043
			c-7.359,0-20.854-1.64-27.817-12.776c-3.568-5.626-3.783-11.351-3.783-18.215v-44.173h15.857V580.276z"/>
		<path d="M601.838,580.276l24.438,0.101c4.086,0,16.572,0.101,25.451,6.645c9.307,6.858,12.587,18.504,12.587,29.046
			c0,22.698-12.163,34.561-26.172,37.12c-2.769,0.512-5.831,0.812-13.303,0.812h-23.003L601.838,580.276L601.838,580.276z
			 M617.897,641.828c1.725,0.106,4.397,0.208,6.24,0.208c6.749,0,12.571-0.502,17.172-5.111c6.246-6.243,6.645-17.289,6.645-20.857
			c0-10.434-3.583-20.046-13.498-22.8c-3.285-0.929-7.461-1.437-16.567-1.03v49.591H617.897L617.897,641.828z"/>
	</g>
</g>
</svg>
